<svg width="17" height="17" viewBox="0 0 17 17" fill="none" xmlns="http://www.w3.org/2000/svg">
<path d="M7.39106 12.713L11.7321 8.32401L7.38506 4.02501L6.31506 5.10701L9.57906 8.33601L6.30906 11.642L7.39106 12.713Z" fill="#F5F7FA"/>
<path d="M8.37202 16.744C12.988 16.744 16.744 12.988 16.744 8.37102C16.744 3.75402 12.988 1.87451e-05 8.37202 1.83416e-05C3.75602 1.7938e-05 2.0209e-05 3.75502 1.98054e-05 8.37202C1.94018e-05 12.989 3.75602 16.744 8.37202 16.744ZM8.37202 1.52202C12.149 1.52202 15.222 4.59502 15.222 8.37202C15.222 12.149 12.149 15.222 8.37202 15.222C4.59502 15.222 1.52202 12.149 1.52202 8.37202C1.52202 4.59502 4.59502 1.52202 8.37202 1.52202Z" fill="#F5F7FA"/>
</svg>
