<svg width="513" height="513" viewBox="0 0 513 513" fill="none" xmlns="http://www.w3.org/2000/svg">
<g clip-path="url(#clip0)">
<path d="M449.329 18.501H62.572V98.416H449.329V18.501Z" fill="#424ACF"/>
<path d="M449.321 18.501H321.3V98.416H449.321V18.501Z" fill="#373BAE"/>
<path d="M449.335 18.5034L240.938 226.901L303.606 289.568L512.003 81.1709L449.335 18.5034Z" fill="#5374FC"/>
<path opacity="0.34" d="M303.598 289.573L512 81.171L294.82 173.01L240.928 226.902" fill="#373BAE"/>
<path d="M191.772 272.943L0 81.171L62.67 18.501L318.733 274.437L191.772 272.943Z" fill="#5697FC"/>
<path d="M253.816 493.503C319.535 493.503 372.811 440.227 372.811 374.508C372.811 308.789 319.535 255.513 253.816 255.513C188.097 255.513 134.821 308.789 134.821 374.508C134.821 440.227 188.097 493.503 253.816 493.503Z" fill="#4F3208"/>
<path d="M253.816 466.353C304.541 466.353 345.661 425.233 345.661 374.508C345.661 323.783 304.541 282.663 253.816 282.663C203.091 282.663 161.971 323.783 161.971 374.508C161.971 425.233 203.091 466.353 253.816 466.353Z" fill="#7B5630"/>
<path d="M302.822 295.783L171.194 410.955C177.793 426.2 188.402 439.301 201.695 448.931L336.427 331.043C328.593 316.487 316.946 304.289 302.822 295.783Z" fill="#9F7449"/>
<path opacity="0.09" d="M324.611 278.86C333.321 295.4 338.259 314.236 338.259 334.228C338.259 399.949 284.981 453.227 219.26 453.227C192.738 453.227 168.245 444.546 148.46 429.876C168.384 467.709 208.082 493.507 253.811 493.507C319.532 493.507 372.81 440.229 372.81 374.508C372.81 335.311 353.854 300.542 324.611 278.86Z" fill="#0B0701"/>
</g>
<defs>
<clipPath id="clip0">
<rect width="512.008" height="512.008" fill="white"/>
</clipPath>
</defs>
</svg>
