<svg width="18" height="18" viewBox="0 0 18 18" fill="none" xmlns="http://www.w3.org/2000/svg">
<path d="M9 0C7.21997 0 5.47991 0.527841 3.99987 1.51677C2.51983 2.50571 1.36628 3.91131 0.685088 5.55585C0.00389954 7.20038 -0.17433 9.00998 0.172936 10.7558C0.520203 12.5016 1.37737 14.1053 2.63604 15.364C3.89471 16.6226 5.49836 17.4798 7.24419 17.8271C8.99002 18.1743 10.7996 17.9961 12.4442 17.3149C14.0887 16.6337 15.4943 15.4802 16.4832 14.0001C17.4722 12.5201 18 10.78 18 9C18 6.61305 17.0518 4.32387 15.364 2.63604C13.6761 0.948211 11.387 0 9 0ZM4.6188 6.5106C4.72555 6.25328 4.90851 6.0348 5.14309 5.88453C5.37767 5.73426 5.65262 5.65939 5.931 5.67C6.9498 5.67 7.9686 5.67 8.991 5.67C10.0134 5.67 11.0358 5.67 12.051 5.67C12.3263 5.6583 12.5989 5.72916 12.8337 5.87349C13.0685 6.01782 13.2547 6.22903 13.3686 6.48C13.3915 6.51175 13.4064 6.54853 13.4122 6.58725C13.4179 6.62597 13.4143 6.66549 13.4016 6.70252C13.3889 6.73954 13.3675 6.77298 13.3392 6.80004C13.3109 6.82709 13.2766 6.84697 13.239 6.858L9.18 8.973C9.12877 9.00237 9.07075 9.01782 9.0117 9.01782C8.95265 9.01782 8.89463 9.00237 8.8434 8.973L4.7322 6.84C4.69956 6.83027 4.66971 6.8129 4.64512 6.78932C4.62054 6.76575 4.60193 6.73665 4.59084 6.70444C4.57975 6.67224 4.57651 6.63785 4.58137 6.60414C4.58623 6.57043 4.59907 6.53836 4.6188 6.5106ZM13.4748 11.1708C13.4237 11.4973 13.2564 11.7943 13.0037 12.0073C12.7511 12.2202 12.43 12.3348 12.0996 12.33C11.2644 12.33 10.4292 12.33 9.5958 12.33H5.9274C5.61601 12.3369 5.31133 12.2389 5.06227 12.0519C4.81322 11.8649 4.63422 11.5996 4.554 11.2986C4.52175 11.1813 4.50481 11.0603 4.5036 10.9386C4.5036 9.9594 4.5036 8.9802 4.5036 7.9992C4.5036 7.7454 4.662 7.6518 4.8906 7.7688C6.1686 8.4336 7.4454 9.0996 8.721 9.7668C8.80683 9.81764 8.90475 9.84447 9.0045 9.84447C9.10426 9.84447 9.20218 9.81764 9.288 9.7668C10.5576 9.1008 11.829 8.4408 13.1022 7.7868C13.1382 7.76581 13.177 7.75006 13.2174 7.74C13.2518 7.72811 13.2886 7.72518 13.3244 7.73146C13.3602 7.73774 13.3938 7.75303 13.4221 7.7759C13.4504 7.79877 13.4724 7.82846 13.486 7.86217C13.4996 7.89588 13.5044 7.93251 13.5 7.9686C13.5 8.817 13.5 9.6648 13.5 10.512C13.5097 10.7319 13.5013 10.9523 13.4748 11.1708Z" fill="#F5F7FA"/>
</svg>
