<svg width="18" height="18" viewBox="0 0 18 18" fill="none" xmlns="http://www.w3.org/2000/svg">
<path fill-rule="evenodd" clip-rule="evenodd" d="M9.03371 0C13.9551 0 18 4.04494 18 9.03371C18 13.9551 13.9551 18 9.03371 18C4.04494 18 0 13.9551 0 9.03371C0 4.04494 4.04494 0 9.03371 0ZM6.40449 7.34831L7.07865 6.67416C7.34831 6.40449 7.2809 6 7.07865 5.66292L5.66292 3.4382C5.46067 3.16854 4.98876 3.16854 4.7191 3.4382L3.8427 4.31461L3.50562 4.7191C1.61798 6.53933 11.4607 16.4494 13.3483 14.5618L13.6854 14.1573L14.5618 13.2809C14.8315 13.0787 14.8989 12.5393 14.5618 12.3371L12.3371 10.9213C12 10.7191 11.6629 10.6517 11.3933 10.9213L10.7191 11.5955C9.03371 10.382 7.61798 9.03371 6.40449 7.34831Z" fill="#F5F7FA"/>
</svg>
