<svg width="18" height="18" viewBox="0 0 18 18" fill="none" xmlns="http://www.w3.org/2000/svg">
<circle cx="9" cy="9" r="9" fill="#F5F7FA"/>
<path d="M6.39862 6.82969C6.39862 6.49222 6.18788 6.27104 5.86538 6.27104C5.54887 6.27104 5.22675 6.49183 5.22675 6.82969C5.22675 7.16126 5.54887 7.38204 5.86538 7.38204C6.1875 7.38204 6.39862 7.16126 6.39862 6.82969ZM10.752 9.9419C10.752 9.72112 10.5413 9.49994 10.2188 9.49994C10.008 9.49994 9.79688 9.72072 9.79688 9.9419C9.79688 10.169 10.0076 10.3902 10.2188 10.3902C10.5409 10.3902 10.752 10.1694 10.752 9.9419ZM9.369 6.82969C9.369 6.49222 9.15825 6.27104 8.84175 6.27104C8.51963 6.27104 8.20312 6.49183 8.20312 6.82969C8.20312 7.16126 8.51963 7.38204 8.84175 7.38204C9.15825 7.38204 9.369 7.16126 9.369 6.82969ZM13.0898 9.9419C13.0898 9.72112 12.873 9.49994 12.5565 9.49994C12.3457 9.49994 12.1346 9.72072 12.1346 9.9419C12.1346 10.169 12.3454 10.3902 12.5565 10.3902C12.873 10.3902 13.0898 10.1694 13.0898 9.9419ZM11.5312 7.50501C11.3966 7.48654 11.2616 7.48026 11.121 7.48026C9.10538 7.48026 7.51163 9.05797 7.51163 10.9975C7.51163 11.3228 7.5585 11.6359 7.64625 11.9305C7.51163 11.9427 7.38263 11.949 7.248 11.949C6.71475 11.949 6.29288 11.8386 5.75962 11.7282L4.27725 12.5077L4.69913 11.1696C3.63863 10.3902 3 9.38326 3 8.16187C3 6.04397 4.91025 4.38062 7.248 4.38062C9.33413 4.38062 11.1679 5.71279 11.5312 7.50501ZM15 10.9484C15 11.949 14.3674 12.8392 13.5116 13.5083L13.8337 14.6193L12.6679 13.9502C12.24 14.0606 11.8125 14.1773 11.3906 14.1773C9.369 14.1773 7.78125 12.7288 7.78125 10.9484C7.78125 9.16797 9.369 7.71951 11.3906 7.71951C13.3009 7.71951 15 9.16797 15 10.9484Z" fill="#1F2933"/>
</svg>
